<?xml version="1.0" standalone="no"?>
<!DOCTYPE svg PUBLIC "-//W3C//DTD SVG 20010904//EN"
 "http://www.w3.org/TR/2001/REC-SVG-20010904/DTD/svg10.dtd">
<svg version="1.0" xmlns="http://www.w3.org/2000/svg"
 width="428.000000pt" height="428.000000pt" viewBox="0 0 428.000000 428.000000"
 preserveAspectRatio="xMidYMid meet">
<metadata>
Created by potrace 1.14, written by Peter Selinger 2001-2017
</metadata>
<g transform="translate(0.000000,428.000000) scale(0.100000,-0.100000)"
fill="#000000" stroke="none">
<path d="M4055 3821 c-7 -12 -200 -105 -285 -138 -36 -14 -153 -44 -261 -68
-285 -63 -368 -95 -488 -186 l-54 -41 -61 16 c-151 39 -396 49 -543 21 -229
-43 -481 -167 -652 -320 -62 -55 -65 -56 -110 -51 -132 16 -169 17 -317 7
-257 -18 -549 -84 -799 -183 -135 -53 -412 -191 -455 -227 l-34 -29 55 -59
c114 -119 167 -181 194 -229 150 -265 284 -432 448 -555 101 -76 314 -181 437
-215 52 -14 101 -27 108 -29 6 -3 12 -17 12 -32 1 -52 39 -204 74 -289 72
-176 226 -365 397 -487 241 -172 585 -259 1024 -260 228 0 526 50 679 113 151
63 411 287 546 470 74 101 146 241 193 376 60 173 72 241 72 420 l0 160 -91
125 c-50 68 -94 129 -97 136 -4 6 5 25 20 42 47 52 141 248 167 351 47 182 56
359 31 605 -27 253 -74 413 -154 523 -31 42 -45 50 -56 33z m-55 -435 c54
-126 91 -434 71 -595 -17 -144 -88 -359 -110 -335 -5 5 -16 29 -25 54 -10 25
-41 90 -71 146 -69 132 -125 297 -125 370 0 65 21 153 54 228 19 43 39 65 102
114 44 34 80 61 82 61 1 1 11 -19 22 -43z m-2965 -821 c101 -38 244 -115 280
-151 56 -56 65 -101 49 -245 -8 -68 -18 -191 -23 -272 -5 -82 -11 -150 -14
-153 -9 -10 -169 48 -288 105 -137 65 -213 118 -306 213 -143 146 -274 346
-289 440 l-6 34 85 18 c105 22 210 33 344 35 87 1 113 -3 168 -24z m2355 -6
c17 -17 37 -43 44 -58 12 -23 61 -193 68 -231 3 -25 -12 -59 -32 -70 -27 -15
-46 10 -60 76 -15 70 -53 182 -81 239 -37 75 2 103 61 44z m-1043 -248 c31
-46 61 -131 84 -236 22 -98 19 -130 -12 -140 -32 -10 -56 19 -63 77 -9 67 -42
160 -78 222 -35 59 -47 114 -28 126 21 13 73 -13 97 -49z m927 -233 c16 -26
-11 -66 -53 -79 -20 -6 -39 -13 -42 -15 -4 -2 6 -44 22 -94 22 -72 26 -96 18
-119 -22 -62 -87 -37 -94 36 -2 23 -16 65 -30 93 l-25 50 -124 0 c-101 0 -126
3 -137 16 -9 11 -10 20 -2 32 8 14 33 18 124 23 121 7 209 26 274 58 45 22 54
22 69 -1z"/>
</g>
</svg>
